<svg width="1600" height="1200" viewBox="0 0 1600 1200" fill="none" xmlns="http://www.w3.org/2000/svg">
  <defs>
    <linearGradient id="bg3" x1="160" y1="64" x2="1456" y2="1112" gradientUnits="userSpaceOnUse">
      <stop stop-color="#231624"/>
      <stop offset="0.58" stop-color="#171017"/>
      <stop offset="1" stop-color="#110910"/>
    </linearGradient>
    <radialGradient id="glow3" cx="0" cy="0" r="1" gradientUnits="userSpaceOnUse" gradientTransform="translate(1238 214) rotate(137.848) scale(562 562)">
      <stop stop-color="#C9A877" stop-opacity="0.24"/>
      <stop offset="1" stop-color="#C9A877" stop-opacity="0"/>
    </radialGradient>
    <linearGradient id="line3" x1="340" y1="244" x2="1220" y2="902" gradientUnits="userSpaceOnUse">
      <stop stop-color="#F3E5BC"/>
      <stop offset="1" stop-color="#C9A877"/>
    </linearGradient>
  </defs>

  <rect width="1600" height="1200" fill="url(#bg3)"/>
  <rect width="1600" height="1200" fill="url(#glow3)"/>

  <g opacity="0.1">
    <circle cx="220" cy="940" r="4" fill="#E8D5AA"/>
    <circle cx="320" cy="860" r="4" fill="#E8D5AA"/>
    <circle cx="1180" cy="906" r="4" fill="#E8D5AA"/>
    <circle cx="1330" cy="272" r="4" fill="#E8D5AA"/>
    <circle cx="1046" cy="144" r="4" fill="#E8D5AA"/>
    <circle cx="920" cy="1040" r="4" fill="#E8D5AA"/>
    <path d="M0 1030H1600" stroke="#E8D5AA"/>
    <path d="M0 870H1600" stroke="#E8D5AA"/>
    <path d="M0 710H1600" stroke="#E8D5AA"/>
    <path d="M0 550H1600" stroke="#E8D5AA"/>
    <path d="M0 390H1600" stroke="#E8D5AA"/>
    <path d="M280 0V1200" stroke="#E8D5AA"/>
    <path d="M440 0V1200" stroke="#E8D5AA"/>
    <path d="M600 0V1200" stroke="#E8D5AA"/>
    <path d="M760 0V1200" stroke="#E8D5AA"/>
    <path d="M920 0V1200" stroke="#E8D5AA"/>
    <path d="M1080 0V1200" stroke="#E8D5AA"/>
  </g>

  <g transform="translate(284 194)">
    <path d="M44 0H946V716H684V824H320V932H0V298H44V0Z" fill="#1A121A" stroke="url(#line3)" stroke-width="16"/>
    <rect x="86" y="86" width="248" height="228" rx="18" fill="#231627" stroke="#E8D5AA" stroke-opacity="0.84" stroke-width="10"/>
    <rect x="382" y="86" width="248" height="228" rx="18" fill="#231627" stroke="#E8D5AA" stroke-opacity="0.84" stroke-width="10"/>
    <rect x="678" y="86" width="212" height="228" rx="18" fill="#231627" stroke="#E8D5AA" stroke-opacity="0.84" stroke-width="10"/>
    <rect x="86" y="362" width="316" height="214" rx="18" fill="#231627" stroke="#E8D5AA" stroke-opacity="0.84" stroke-width="10"/>
    <rect x="450" y="362" width="440" height="214" rx="18" fill="#231627" stroke="#E8D5AA" stroke-opacity="0.84" stroke-width="10"/>
    <rect x="86" y="624" width="214" height="182" rx="18" fill="#231627" stroke="#E8D5AA" stroke-opacity="0.84" stroke-width="10"/>
    <rect x="348" y="624" width="288" height="116" rx="18" fill="#231627" stroke="#E8D5AA" stroke-opacity="0.84" stroke-width="10"/>
    <path d="M334 804V932" stroke="#C9A877" stroke-width="12"/>
    <path d="M244 314V362" stroke="#C9A877" stroke-width="12"/>
    <path d="M528 314V362" stroke="#C9A877" stroke-width="12"/>
    <path d="M786 314V362" stroke="#C9A877" stroke-width="12"/>

    <text x="140" y="214" fill="#F7EBD0" font-family="Georgia, serif" font-size="32" font-style="italic">Bedroom</text>
    <text x="436" y="214" fill="#F7EBD0" font-family="Georgia, serif" font-size="32" font-style="italic">Bedroom</text>
    <text x="722" y="214" fill="#F7EBD0" font-family="Georgia, serif" font-size="28" font-style="italic">Guest</text>
    <text x="168" y="484" fill="#F7EBD0" font-family="Georgia, serif" font-size="34" font-style="italic">Living</text>
    <text x="598" y="484" fill="#F7EBD0" font-family="Georgia, serif" font-size="34" font-style="italic">Dining</text>
    <text x="126" y="728" fill="#F7EBD0" font-family="Georgia, serif" font-size="26" font-style="italic">Kitchen</text>
    <text x="410" y="700" fill="#F7EBD0" font-family="Georgia, serif" font-size="24" font-style="italic">Balcony</text>
  </g>

  <text x="114" y="136" fill="#C9A877" font-family="Arial, sans-serif" font-size="34" letter-spacing="10">SIGNATURE PLAN</text>
</svg>
