<svg width="1600" height="1200" viewBox="0 0 1600 1200" fill="none" xmlns="http://www.w3.org/2000/svg">
  <defs>
    <linearGradient id="bg2" x1="240" y1="120" x2="1360" y2="1040" gradientUnits="userSpaceOnUse">
      <stop stop-color="#2C1828"/>
      <stop offset="0.55" stop-color="#170E18"/>
      <stop offset="1" stop-color="#120810"/>
    </linearGradient>
    <radialGradient id="glow2" cx="0" cy="0" r="1" gradientUnits="userSpaceOnUse" gradientTransform="translate(1180 240) rotate(132.742) scale(542.89 542.89)">
      <stop stop-color="#E8D5AA" stop-opacity="0.26"/>
      <stop offset="1" stop-color="#E8D5AA" stop-opacity="0"/>
    </radialGradient>
    <linearGradient id="line2" x1="388" y1="256" x2="1176" y2="880" gradientUnits="userSpaceOnUse">
      <stop stop-color="#F3E5BC"/>
      <stop offset="1" stop-color="#C9A877"/>
    </linearGradient>
  </defs>

  <rect width="1600" height="1200" fill="url(#bg2)"/>
  <rect width="1600" height="1200" fill="url(#glow2)"/>

  <g opacity="0.13">
    <path d="M0 1020H1600" stroke="#E8D5AA"/>
    <path d="M0 900H1600" stroke="#E8D5AA"/>
    <path d="M0 780H1600" stroke="#E8D5AA"/>
    <path d="M0 660H1600" stroke="#E8D5AA"/>
    <path d="M0 540H1600" stroke="#E8D5AA"/>
    <path d="M0 420H1600" stroke="#E8D5AA"/>
    <path d="M0 300H1600" stroke="#E8D5AA"/>
    <path d="M300 0V1200" stroke="#E8D5AA"/>
    <path d="M420 0V1200" stroke="#E8D5AA"/>
    <path d="M540 0V1200" stroke="#E8D5AA"/>
    <path d="M660 0V1200" stroke="#E8D5AA"/>
    <path d="M780 0V1200" stroke="#E8D5AA"/>
    <path d="M900 0V1200" stroke="#E8D5AA"/>
    <path d="M1020 0V1200" stroke="#E8D5AA"/>
    <path d="M1140 0V1200" stroke="#E8D5AA"/>
  </g>

  <g transform="translate(360 220)">
    <path d="M48 0H792V640H420V780H0V258H48V0Z" fill="#1D1220" stroke="url(#line2)" stroke-width="16"/>
    <rect x="88" y="84" width="256" height="230" rx="18" fill="#221526" stroke="#E8D5AA" stroke-opacity="0.84" stroke-width="10"/>
    <rect x="392" y="84" width="320" height="230" rx="18" fill="#221526" stroke="#E8D5AA" stroke-opacity="0.84" stroke-width="10"/>
    <rect x="88" y="360" width="268" height="160" rx="18" fill="#221526" stroke="#E8D5AA" stroke-opacity="0.84" stroke-width="10"/>
    <rect x="404" y="360" width="308" height="184" rx="18" fill="#221526" stroke="#E8D5AA" stroke-opacity="0.84" stroke-width="10"/>
    <rect x="88" y="568" width="248" height="124" rx="18" fill="#221526" stroke="#E8D5AA" stroke-opacity="0.84" stroke-width="10"/>
    <path d="M356 692H416V544" stroke="#C9A877" stroke-width="12"/>
    <path d="M308 314V360" stroke="#C9A877" stroke-width="12"/>
    <path d="M552 314V360" stroke="#C9A877" stroke-width="12"/>
    <path d="M712 476H792" stroke="#C9A877" stroke-width="12"/>

    <text x="164" y="210" fill="#F7EBD0" font-family="Georgia, serif" font-size="34" font-style="italic">Bedroom</text>
    <text x="468" y="210" fill="#F7EBD0" font-family="Georgia, serif" font-size="34" font-style="italic">Living</text>
    <text x="150" y="455" fill="#F7EBD0" font-family="Georgia, serif" font-size="30" font-style="italic">Bedroom</text>
    <text x="488" y="460" fill="#F7EBD0" font-family="Georgia, serif" font-size="30" font-style="italic">Dining</text>
    <text x="144" y="640" fill="#F7EBD0" font-family="Georgia, serif" font-size="28" font-style="italic">Kitchen</text>
  </g>

  <text x="114" y="136" fill="#C9A877" font-family="Arial, sans-serif" font-size="34" letter-spacing="10">CURATED PLAN</text>
</svg>
